# xmcd
#
# Track frame offsets:
#	150
#	16836
#	29635
#	44900
#	60405
#	74317
#	88817
#	105317
#	119817
#	134777
#	149635
#	162679
#	178224
#	193062
#
# Disc length: 2799
#
# Revision: 2
# Processed by: cddbd v1.5.1PL0 Copyright (c) Steve Scherf et al.
# Submitted via: audiograbber 1.83.01
# Normalized: r1:DSETVAR1
#
DISCID=e30aed0e
DTITLE=Various Artist - Goldene Volksmusikparade 2003_1
DYEAR=2003
DGENRE=Volksmusik
TTITLE0=Kasteltruther Spatzen - Wo ist die Zeit
TTITLE1=Francine Jordi - Du für immer du
TTITLE2=Klostertaler - Jetzt wird's Nacht
TTITLE3=Fernando Express - Südlich der Sehnsucht
TTITLE4=Petra Frey and Oliver Haidt - Trennen uns auch Meere
TTITLE5=Alpenrebellen - Reden ist Silber schweigen ist Gold
TTITLE6=Stepanie - So wie Feuer und Eis
TTITLE7=Nockalm Quintett - Tief im Herzen
TTITLE8=Marianne Cathomen - Kommt Zeit kommt Rat
TTITLE9=Mary Kayser - Unsichtbare Tränen
TTITLE10=Die Zillertaler - Es muss rocken es muss grooven
TTITLE11=Rudy Giovanni - Blu mare blu
TTITLE12=Katharina Herz and Torsten Benkenstein - Heimweh nach Athen
TTITLE13=Die fidelen Mölltaler - Die schönste Sprache der Welt
EXTD=
EXTT0=
EXTT1=
EXTT2=
EXTT3=
EXTT4=
EXTT5=
EXTT6=
EXTT7=
EXTT8=
EXTT9=
EXTT10=
EXTT11=
EXTT12=
EXTT13=
PLAYORDER=
